<?xml version="1.0" encoding="UTF-8"?>
<svg id="Layer_2" data-name="Layer 2" xmlns="http://www.w3.org/2000/svg" viewBox="0 0 19.53 19.53">
  <defs>
    <style>
      .cls-1 {
        fill: #000b22;
      }
    </style>
  </defs>
  <g id="Layer_1-2" data-name="Layer 1">
    <path class="cls-1" d="m0,0v19.53h19.53V0H0Zm15.24,6.77c-.13.12-.26.24-.4.34-.09.07-.13.14-.13.25.02,1.98-.63,3.71-1.95,5.18-1.08,1.2-2.43,1.92-4.02,2.19-1.77.29-3.45.02-5.01-.89-.05-.03-.1-.06-.15-.09,1.37.09,2.6-.27,3.72-1.11-1.18-.1-1.97-.67-2.41-1.77.4.05.77.06,1.13-.06-.72-.18-1.28-.57-1.66-1.2-.25-.4-.39-.95-.35-1.3.18.07.36.15.54.19.18.05.38.07.57.09-1.13-.94-1.39-2.07-.78-3.43,1.41,1.65,3.17,2.54,5.32,2.69-.01-.1-.02-.18-.03-.27-.18-1.34.72-2.58,2.01-2.84.88-.17,1.65.05,2.3.67.07.06.12.08.22.06.48-.11.93-.28,1.35-.51.03-.02.07-.04.13-.07-.21.59-.57,1.03-1.08,1.36,0,.01.01.03.02.04.23-.05.47-.09.7-.15.23-.06.45-.15.69-.22-.21.31-.45.59-.72.84Z"/>
  </g>
</svg>