<?xml version="1.0" encoding="UTF-8"?>
<svg id="Layer_2" data-name="Layer 2" xmlns="http://www.w3.org/2000/svg" viewBox="0 0 19.53 19.53">
  <defs>
    <style>
      .cls-1 {
        fill: #000b22;
      }
    </style>
  </defs>
  <g id="Layer_1-2" data-name="Layer 1">
    <path class="cls-1" d="m0,0h19.53v19.53H0c0-6.51,0-13.02,0-19.53Zm10.39,8.53c0-.34,0-.68,0-1.03,0-.14-.04-.19-.19-.19-.81,0-1.62,0-2.43,0-.14,0-.19.04-.19.18,0,2.98,0,5.96,0,8.94,0,.14.04.18.18.18.84,0,1.69,0,2.53,0,.2,0,.2,0,.2-.2,0-1.48,0-2.95,0-4.43,0-.28.02-.57.06-.85.14-.95.59-1.39,1.48-1.48.82-.08,1.38.3,1.54,1.11.07.35.09.71.1,1.06.01,1.53,0,3.06,0,4.59,0,.14.04.19.19.19.86,0,1.72,0,2.58,0,.15,0,.18-.05.18-.19-.01-1.9-.01-3.8-.03-5.71,0-.59-.11-1.16-.31-1.72-.27-.77-.76-1.34-1.53-1.65-.58-.23-1.18-.29-1.79-.26-.73.03-1.39.26-1.94.74-.23.2-.43.46-.65.7Zm-7.47,3.43c0,1.49,0,2.98,0,4.47,0,.15.04.19.19.19.84,0,1.69,0,2.53,0,.16,0,.2-.04.2-.2,0-2.97,0-5.94,0-8.91,0-.16-.05-.2-.2-.2-.84,0-1.68,0-2.52,0-.2,0-.2,0-.2.2,0,1.48,0,2.96,0,4.44Zm1.46-9.25c-.93,0-1.69.75-1.7,1.68,0,.93.76,1.7,1.69,1.71.92,0,1.71-.78,1.7-1.7,0-.92-.77-1.69-1.7-1.69Z"/>
  </g>
</svg>