<?xml version="1.0" encoding="UTF-8"?>
<svg id="Layer_2" data-name="Layer 2" xmlns="http://www.w3.org/2000/svg" viewBox="0 0 19.53 19.53">
  <defs>
    <style>
      .cls-1 {
        fill: #000b22;
      }
    </style>
  </defs>
  <g id="Layer_1-2" data-name="Layer 1">
    <path class="cls-1" d="m0,0v19.53h7.86c0-1.25,0-2.5,0-3.75,0-1.13,0-2.27,0-3.4,0-.11,0-.12-.11-.12-.43,0-.85,0-1.28,0-.08,0-.1-.01-.1-.09,0-.83,0-1.65,0-2.48v-.09h.37c.34,0,.68,0,1.02,0,.08,0,.11-.03.11-.1,0-.43,0-.85,0-1.28,0-.57.02-1.13.17-1.68.23-.83.71-1.45,1.55-1.75.46-.16.93-.24,1.41-.24.68,0,1.36,0,2.04,0h.08v.1c0,.82,0,1.64,0,2.46,0,.12,0,.13-.13.13-.3,0-.61-.01-.91,0-.22,0-.43,0-.65.03-.3.04-.51.3-.53.59-.04.49-.01.98-.02,1.47,0,.07,0,.13,0,.2,0,.07.02.09.09.09.55,0,1.09,0,1.64,0h.53s.01.03,0,.04c-.03.24-.05.47-.08.71-.03.32-.06.65-.1.97-.03.28-.06.57-.1.85,0,.07-.05.09-.11.09-.6,0-1.21,0-1.81-.01-.08,0-.08.04-.08.1,0,.58,0,1.16,0,1.75,0,1.81,0,3.62,0,5.42h8.64V0H0Z"/>
  </g>
</svg>