<?xml version="1.0" encoding="UTF-8"?>
<svg id="Layer_2" data-name="Layer 2" xmlns="http://www.w3.org/2000/svg" viewBox="0 0 19.53 19.53">
  <defs>
    <style>
      .cls-1 {
        fill: #000b22;
      }
    </style>
  </defs>
  <g id="Layer_1-2" data-name="Layer 1">
    <g>
      <path class="cls-1" d="m6.07,11.91s0,0-.01.01c0,0,0,0,.01,0,0,0,0,0,0,0Z"/>
      <polygon class="cls-1" points="10.39 14.34 10.39 14.34 10.39 14.34 10.39 14.34 10.39 14.34 10.39 14.34"/>
      <polygon class="cls-1" points="6.07 7.77 6.07 7.77 6.07 7.77 6.07 7.77"/>
      <path class="cls-1" d="m9.63,6.08h-.02s0,0,0,.01c0,0,.01,0,.02-.01Z"/>
      <path class="cls-1" d="m6.14,5.56s0,.01-.01.02c0,0,0,0,.01,0,0,0,0-.01,0-.02Z"/>
      <polygon class="cls-1" points="10.84 5.15 10.84 5.15 10.84 5.15 10.84 5.15 10.84 5.15"/>
      <path class="cls-1" d="m11.58,5.14s0,0,0,.01c0,0,0,0,.01,0,0,0,0,0,0-.01Z"/>
      <polygon class="cls-1" points="5.19 10.15 5.19 10.15 5.19 10.15 5.19 10.15"/>
      <polygon class="cls-1" points="7.13 6.9 7.13 6.9 7.13 6.9 7.13 6.9"/>
      <polygon class="cls-1" points="11.29 14.34 11.3 14.34 11.29 14.34 11.29 14.34"/>
      <path class="cls-1" d="m14.3,7.69c-.03-.11-.03-.23-.06-.34,0-.07-.03-.14-.01-.21-.02-.01-.03-.03-.04-.05-.09-.27-.21-.51-.37-.74-.01-.02-.02-.04-.02-.06-.05-.01-.07-.05-.08-.1,0,0,0,0,0,0-.04.01-.06-.01-.08-.04-.16-.19-.34-.34-.55-.47-.03-.02-.07-.04-.08-.09,0,0,0,0,0,0-.12.02-.2-.06-.3-.12-.03-.03-.06-.05-.09-.06,0,0,0,0,0,0-.03-.01-.07-.03-.11-.04-.05-.02-.1-.03-.15-.05-.18-.04-.35-.08-.53-.09-1.37,0-2.74,0-4.11,0,0,0-.02.02-.03.02-.41.05-.81.15-1.18.34,0,0,0,0,0,0-.01.03-.04.05-.07.07-.25.16-.48.36-.66.6-.02.03-.05.07-.09.06-.04.17-.14.31-.25.44.02.04,0,.08,0,.11-.1.25-.16.51-.19.78,0,.02-.01.04-.03.06-.01,0-.02,0-.03,0,0,0,0,0,0,0,0,0,.01,0,.02,0,0,.54,0,1.09,0,1.63h0c0,.84,0,1.69,0,2.53.02.21.04.41.11.61,0,0,0,0,0,0,.07.02.07.08.08.13.06.17.14.33.21.49,0,0,0,0,0,0,.12.08.22.18.24.33,0,0,0,0,0,0,.03.04.06.07.1.11,0,0,0,0,0,0,.13.04.23.11.29.22.01,0,.02,0,.03,0,.23.14.45.27.7.37.02.01.05.03.06.05.2.04.39.07.59.11,1.4,0,2.81,0,4.21,0,.08,0,.15-.01.23-.02.14-.03.29-.07.43-.1,0,0,.01,0,.02,0,0-.07.08-.06.12-.1.25-.09.47-.23.68-.4.04-.03.08-.08.15-.07,0,0,0,0,0,0,.02-.1.09-.15.18-.19,0,0,0,0,0,0-.02-.03,0-.07.02-.09.15-.19.28-.39.39-.61,0-.01.02-.02.03-.02,0,0,0,0,.01,0,0,0-.01,0-.02,0,0-.02,0-.05,0-.07.11-.25.14-.52.19-.79,0-.02.01-.03.02-.04,0,0,0,0,0,0,0-.72,0-1.45,0-2.17,0-.63,0-1.25,0-1.88,0-.02-.02-.04-.02-.06Zm-.8,4.1s0,.08-.02.11c0,0,0,.02,0,.02,0,.03,0,.07-.02.1-.04.29-.16.53-.34.76-.22.22-.42.46-.73.56-.14.08-.3.11-.45.13-.07.04-.15.03-.22.03-1.31,0-2.62,0-3.93,0-.05,0-.1.01-.15-.02-.38-.01-.68-.2-.96-.43-.19-.16-.35-.35-.44-.59-.07-.11-.11-.24-.13-.37,0-.02,0-.03,0-.05-.03-.03-.03-.07-.03-.11-.03-.04-.02-.08-.02-.12,0-.73,0-1.45,0-2.18,0-.63,0-1.25,0-1.88,0-.03.01-.06.02-.09h0c.03-.34.15-.64.37-.91.14-.22.34-.36.56-.48.19-.1.38-.18.6-.2.03,0,.05,0,.08-.01.07-.03.14-.02.21-.02,1.27,0,2.55,0,3.82,0,.06,0,.13-.01.19.02.03,0,.05,0,.08,0,.45.06.8.28,1.1.61h0c.24.27.38.57.42.93,0,.02,0,.03,0,.05.02.03.02.06.02.09,0,.57,0,1.14,0,1.71h0c0,.78,0,1.56,0,2.34Z"/>
      <path class="cls-1" d="m12.69,7.19c-.02-.05-.06-.1-.02-.16,0,0,0,0,0,0,0,0,0,0-.02,0-.03,0-.05-.03-.07-.05-.16-.17-.35-.21-.57-.15-.02,0-.04,0-.06,0,0,0,0,0,0,0-.02.04-.05.06-.08.09-.14.14-.21.3-.17.5,0,.04.01.07,0,.11,0,0,0,0,0,0,.05.1.12.18.21.25,0,0,.02.01.03.02.15.07.31.08.47.03.04-.02.07-.03.11-.05.06-.06.12-.12.17-.2,0,0,0-.02,0-.03,0-.04,0-.07.02-.1.03-.09.03-.18,0-.28Z"/>
      <path class="cls-1" d="m7.41,9.96s0,0,0-.01c0,0,0,0,0,0,0,0,0,0,0,0Z"/>
      <path class="cls-1" d="m0,0v19.53h19.53V0H0Zm15.9,13.59s-.02.09-.03.14h0c-.09.55-.33,1.02-.73,1.4h0c-.12.13-.25.25-.41.33-.39.26-.81.4-1.28.45-.37.03-.74,0-1.1.01-.14,0-.27,0-.41,0,0,0,0-.01,0-.02,0,0,0,0-.01,0-.11,0-.22,0-.34,0-.21,0-.41,0-.62,0h-2.13c-.3,0-.6,0-.9,0h0c-.62,0-1.23,0-1.85,0-.04,0-.08,0-.12,0-.09-.01-.19-.01-.28-.06-.14-.04-.29-.07-.42-.14-.22-.08-.41-.19-.59-.33-.13-.06-.21-.17-.31-.27h0c-.14-.12-.25-.27-.34-.43-.14-.2-.24-.42-.31-.65-.02-.05-.03-.09-.05-.14l-.06-.42c-.03-.27,0-.54-.01-.8,0,0,.02-.01.02-.02,0,0,0-.01,0-.02,0-.34,0-.68,0-1.01,0-.33,0-.66,0-.98,0-.35,0-.69,0-1.04,0-.28,0-.56,0-.84,0,0,0,0,0,0,0,0,0,0-.01,0-.01-.14-.01-.28,0-.42,0-.21,0-.41,0-.62,0-.24,0-.49,0-.73,0-.02,0-.04.01-.06,0-.16,0-.32,0-.48-.01-.23-.01-.46.05-.68.02-.21.09-.41.19-.6,0,0,0,0,0,0,0,0,0-.01,0-.01.33-.72.88-1.19,1.63-1.43.15-.05.3-.09.47-.09l.12-.03c.52,0,1.05,0,1.57,0,.14,0,.28,0,.42,0,.53,0,1.07,0,1.6,0,.5,0,.99,0,1.49,0,.73,0,1.46,0,2.19,0,.15.02.3.02.45.05.33.06.62.19.9.37.25.16.46.34.64.58.18.23.33.47.41.75.1.23.15.46.14.71.04.03.03.08.03.12,0,.98,0,1.96,0,2.93,0,.01,0,.03,0,.04,0,.94,0,1.89,0,2.83,0,.53.03,1.06-.02,1.59Z"/>
      <polygon class="cls-1" points="14.38 11.16 14.38 11.16 14.38 11.16 14.38 11.16 14.38 11.16"/>
      <path class="cls-1" d="m9.18,13.46h.02s-.01-.01-.02-.02c0,0,0,.01,0,.02Z"/>
      <path class="cls-1" d="m12.01,9.03s0-.02-.01-.03c-.09-.25-.22-.47-.37-.69-.23-.26-.48-.48-.78-.64-.28-.12-.56-.22-.87-.24-.13,0-.26,0-.4,0-.24.02-.47.08-.7.17-.15.07-.3.15-.44.24-.18.13-.32.29-.48.44-.08.13-.16.25-.25.38-.12.24-.19.5-.26.76,0,0,0,0,0,0h0c0,.22-.02.44,0,.66.05.19.1.37.15.56,0,0,0,0,0,0,.07.13.13.26.2.39.06.08.12.17.18.25.06,0,.1.03.14.07.4.43.91.65,1.48.72.13.02.25.02.38,0,.12-.02.24-.06.36-.05,0,0,.01,0,.02.01.03-.03.07-.05.11-.06.24-.08.46-.21.69-.33,0,0,0,0,0,0,0,0,0-.01,0-.02.22-.19.42-.41.6-.64,0-.01,0-.03,0-.04.09-.16.14-.35.25-.5,0,0,0,0,0,0-.03-.14.02-.26.07-.38,0,0,.01,0,.02,0,0-.02,0-.04,0-.05,0-.23,0-.45-.03-.67-.02-.09-.05-.18-.07-.28Zm-.74.93c-.02.16-.06.32-.14.46-.04.12-.11.22-.2.31-.11.14-.23.26-.4.32-.02.01-.03.02-.05.03,0,0,0,0,0,0-.12.08-.25.13-.4.14-.01.03-.03.03-.06.03-.16.04-.32.05-.48,0-.54-.1-.93-.38-1.15-.89-.06-.11-.09-.22-.11-.35,0,0,0,0,0,0h0c-.05-.16-.04-.32,0-.48,0,0,0-.02,0-.02.03-.26.15-.48.3-.68.24-.32.56-.5.95-.57.15-.04.31-.04.46,0,.65.09,1.15.6,1.26,1.26,0,.01,0,.02,0,.03.03.13.03.26,0,.4Z"/>
    </g>
  </g>
</svg>