<?xml version="1.0" encoding="UTF-8"?>
<svg id="Layer_2" data-name="Layer 2" xmlns="http://www.w3.org/2000/svg" viewBox="0 0 886.27 886.27">
  <defs>
    <style>
      .cls-1 {
        fill: #fff;
      }

      .cls-2 {
        fill: #0034ae;
      }
    </style>
  </defs>
  <g id="Layer_1-2" data-name="Layer 1">
    <g>
      <rect class="cls-2" x="0" y="0" width="886.27" height="886.27" rx="443.14" ry="443.14"/>
      <g>
        <path class="cls-1" d="m343.06,549.22c-16.62,15.41-39.25,23.11-67.87,23.11-37.12,0-68.55-14.19-94.26-42.58l34.58-49.86c9.22,9.46,18.62,16.62,28.2,21.47,9.58,4.86,18.01,7.28,25.29,7.28s12.56-2.18,16.56-6.55,6-10.79,6-19.29v-108.45h-86.62v-60.41h163.04v170.69c0,27.66-8.31,49.2-24.93,64.6Z"/>
        <path class="cls-1" d="m406.56,313.94h81.16l68.42,141.57,68.05-141.57h81.16v255.12h-66.6v-151.4l-58.23,126.29h-49.13l-58.23-126.29v151.4h-66.6v-255.12Z"/>
      </g>
    </g>
  </g>
</svg>