<svg class="logo" id="Layer_1" data-name="Layer 1" xmlns="http://www.w3.org/2000/svg" viewBox="0 0 745.12 167.21">

  <path class="cls-1" d="m70.59,38.85v57.32c0,21.36-14.36,31.86-35.48,32.46-20.27.6-31.13-11.46-35.11-25.82l21.84-7.84c2.29,8.45,6.52,10.98,11.71,10.98,8.57,0,10.02-5.91,10.02-10.62v-56.47h27.03Z"/>
  <path class="cls-1" d="m170.02,127.18h-29.68l-6.15-12.55h-29.93l-6.15,12.55h-29.68l46.82-88.33h7.96l46.82,88.33Zm-43.56-31.25l-7.24-17.62-7.24,17.62h14.48Z"/>
  <path class="cls-1" d="m266.67,38.85v88.33h-27.03v-32.7l-19.31,24.62-18.7-24.5v32.58h-27.03V38.85h9.65l36.2,41.99,36.8-41.99h9.41Z"/>
  <path class="cls-1" d="m311.68,60.45v11.7h38.49v21.6h-38.49v11.83h43.44v21.6h-70.35V38.85h70.35v21.6h-43.44Z"/>
  <path class="cls-1" d="m376.84,95.2c7.12,5.31,18.46,10.98,28.48,10.98,6.03,0,9.53-2.05,9.53-5.31,0-5.07-5.43-5.43-13.15-7-11.58-2.29-35.36-5.07-35.36-27.63s20.51-28.6,36.2-28.6,27.63,4.71,37.53,13.51l-13.15,17.62c-7-4.71-15.57-8.57-24.98-8.57-3.74,0-8.57,1.09-8.57,4.83,0,4.34,5.67,5.55,10.98,6.4,18.7,2.9,37.53,5.19,37.53,28,0,19.67-14.72,29.2-36.08,29.2-18.46,0-30.77-6.03-41.75-15.57l12.79-17.86Z"/>
  <path class="cls-1" d="m460.83,128.02c-7.36,0-13.27-5.55-13.27-13.03,0-7,5.91-12.67,13.27-12.67s13.51,5.67,13.51,12.67c0,7.48-5.91,13.03-13.51,13.03Z"/>
  <path class="cls-1" d="m483.87,127.18V38.85h37.41c27.15,0,45.73,17.5,45.73,44.16s-18.46,44.16-45.73,44.16h-37.41Zm27.03-21.6h9.29c8.45,0,19.79-5.91,19.79-22.44s-11.46-22.81-19.79-22.81h-9.29v45.25Z"/>
  <path class="cls-1" d="m603.45,60.45v11.7h38.49v21.6h-38.49v11.83h43.44v21.6h-70.35V38.85h70.35v21.6h-43.44Z"/>
  <path class="cls-1" d="m745.12,38.85l-43.56,88.33h-7.84l-43.56-88.33h29.92l17.5,41.27c5.91-12.55,11.83-28.72,17.74-41.27h29.8Z"/>
  <path class="cls-1" d="m43.61,40.22h-.05c0-.26.01-.53.02-.79.02.26.03.53.03.79Z"/>
  <path class="cls-1" d="m54.94,40.22h4.44c-.73.08-1.47.12-2.22.12s-1.49-.04-2.22-.12Z"/>
  <path class="cls-1" d="m74.01,31.25c-.44.66-.92,1.3-1.43,1.91.42-.68.89-1.32,1.43-1.91Z"/>
  <path class="cls-1" d="m77.32,20.17c0,4.09-1.22,7.9-3.31,11.08-.54.59-1.01,1.23-1.43,1.91-1.26,2.06-1.99,4.47-1.99,7.06h-26.98c0-.26-.01-.53-.03-.79-.15-2.73-1.11-5.25-2.66-7.31-2.47-3.34-3.93-7.47-3.93-11.95C36.99,9.03,46.02,0,57.16,0s20.16,9.03,20.16,20.17Z"/>
  <path class="cls-1" d="m232.93,147.04c0-4.09,1.22-7.9,3.31-11.08.54-.59,1.01-1.23,1.43-1.91,1.26-2.06,1.99-4.47,1.99-7.06h26.98c0,.26.01.53.03.79.15,2.73,1.11,5.25,2.66,7.31,2.47,3.34,3.93,7.47,3.93,11.95,0,11.14-9.03,20.17-20.17,20.17s-20.16-9.03-20.16-20.17Z"/>
</svg>