<?xml version="1.0" encoding="UTF-8"?>
<svg id="Layer_1" data-name="Layer 1" xmlns="http://www.w3.org/2000/svg" viewBox="0 0 999.81 666.86">
  <defs>
    <style>
      .cls-1 {
        fill: #fff;
      }
    </style>
  </defs>
  <path class="cls-1" d="m887.83.04h13c1.87,2.16,1.8,4.91,2.37,7.49,2.92,13.18,10.22,22.9,22.68,28.51,3.87,1.74,6.17,1.26,7.76-3.43,3.77-11.1,10.42-19.99,21.71-24.67,10.94-4.53,21.69.3,23.3,10.86,1.12,7.32-2.58,13.26-7.03,18.55-5.09,6.06-11.2,10.99-18.88,13.42-4.18,1.32-4.66,3.43-2.64,7.03,5.26,9.38,12.78,15.54,23.53,17.61,3.84.74,5.81-.21,6.69-4.3,2.03-9.35,6.63-17.35,13.89-23.7,1.58-1.38,3.04-3.23,5.6-2.39v18.99c-1.16,1.45-1.14,3.41-2.1,4.94-1.6,2.54.08,3.38,2.1,4.06v14c-5.17,3.33-1.7,6.66,0,10v17.99c-1.85,1.3-3.13-.13-4.44-1.02-5.93-4.06-10.43-9.35-12.76-16.18-1.28-3.77-3.43-5.46-7.48-5.99-21.35-2.77-35.63-14.37-42.41-34.91-.71-2.15-1.9-3.26-4.16-3.66-22.02-3.84-38.4-23.5-41.75-45.54-.39-2.58-.89-5.32,1.02-7.66Z"/>
  <path class="cls-1" d="m0,51.03c2.29-.33,4.2.68,6.11,1.73,8.62,4.69,17.28,9.29,25.85,14.07,2.55,1.42,3.7,1.53,4.09-1.9,1.21-10.56,2.68-21.09,4.07-31.62.13-.99.35-1.96.54-2.94,1.33-6.79,4.82-8.76,11.07-5.73,10.02,4.86,19.92,9.98,29.81,15.1,5.22,2.7,5.12,2.8,5.57-2.83,1-12.44,3.65-24.62,5.86-36.86h26.99c10.74,4.18,20.48,10.36,30.7,15.57,6.75,3.44,7.13,10.67,1.28,14.36-3.13,1.98-6.05.91-9-.49-9.94-4.72-19.42-10.32-29.29-15.17-7.6-3.73-7.69-3.77-9.21,4.61-1.79,9.83-3.24,19.71-3.18,29.75,0,1.33-.02,2.67-.25,3.99-1.26,7.42-7.02,10.52-13.62,6.89-7.59-4.18-15.42-7.89-22.94-12.21-2.17-1.25-4.47-2.25-6.65-3.46-3.14-1.74-4.27-.98-4.65,2.67-1.11,10.59-2.77,21.12-4.1,31.69-1.02,8.06-6.98,10.88-14.13,6.97-8.18-4.48-16.47-8.76-24.59-13.35-5.32-3.01-5.29-3.05-8.39,2.04-.44.73-.96,1.37-1.97,1.12v-23.99Z"/>
  <path class="cls-1" d="m236.95,666.86c-1.45-10.51-2.92-21.02-4.34-31.54-.35-2.63-.7-5.27-.76-7.92-.14-6.04,3.18-8.62,9.36-7.28,6.32,1.37,12.62,2.87,18.92,4.31,4.37,1,8.76,1.92,13.09,3.06,3.38.89,4.94.21,4.77-3.69-.46-10.46-.67-20.93-.97-31.4-.04-1.33-.05-2.66-.02-4,.12-4.83,2.91-8.29,6.74-8.4,3.79-.1,6.89,3.39,7.05,8.1.11,3.16.01,6.33.1,9.49.31,11.47.75,22.93.95,34.4.15,8.93-4.22,12.49-12.99,10.59-9.08-1.96-18.1-4.2-27.15-6.28-4.39-1.01-5.26-.46-4.69,3.97,1.13,8.88,2.61,17.71,3.94,26.56h-14Z"/>
  <path class="cls-1" d="m893.83,666.86c-2.15-9.08-3.65-18.28-4.89-27.51-.9-6.7,2.23-9.58,8.96-8.75,11.39,1.41,22.8,2.67,34.18,4.19,3.71.5,4.62-.52,3.87-4.21-2-9.78-3.66-19.63-5.5-29.44-1.04-5.54.53-8.89,4.75-9.9,4.12-.98,7.25,1.59,8.27,7.1,2.25,12.1,4.47,24.21,6.55,36.35,1.66,9.66-3.59,15.06-13.27,13.87-9.25-1.14-18.49-2.31-27.73-3.46-5.41-.68-5.86-.22-5.05,5.08.85,5.58,2.78,10.97,2.87,16.68h-13Z"/>
  <path class="cls-1" d="m355.93.04h13c3.62,3.15,3.83,7.95,5.7,11.95,2.95,6.32,5.51,6.87,9.97,1.56,1.82-2.17,3.71-4.26,5.72-6.25,12.52-12.36,28.56-8.61,33.81,8.14,1.63,5.19,2.2,10.71,2.99,16.12.6,4.09-.91,7.23-5.23,8.38-4.11,1.1-7.67-.81-9.59-5.09-2-4.46-2.13-9.38-3.46-14.01-1.46-5.09-3.25-5.7-7.16-2.16-3.93,3.56-6.8,8.13-11.31,11.2-11.24,7.64-22.15,5.06-28.24-7.04-2.62-5.2-4.71-10.65-6.51-16.19-.72-2.21-1.51-4.49.31-6.62Z"/>
  <path class="cls-1" d="m0,223.98v-9c6.61-6.44,13.27-2.24,19.79.08,3.59,1.28,6.98,3.15,10.58,4.43,4.28,1.53,8.71-.18,10.16-4.4,1.39-4.04,2.64-8.23,1.8-12.69-.52-2.78-.68-5.55-.18-8.42,2.67-15.34,10.83-20.16,25.63-14.95,3.45,1.21,6.83,2.63,10.37,3.53,3.93,1,7.86-1.49,7.6-5.46-.25-3.92,1.26-7.92-.47-11.77-.41-.91-.43-1.95-.35-2.95.18-2.59,1.4-4.48,3.98-5.12,2.47-.61,4.1.71,5.35,2.72,5.24,8.38,4.31,20.52-2.24,28.05-4.88,5.61-11.12,6.19-17.83,4.52-4.2-1.05-8.14-2.92-12.27-4.22-5.12-1.62-7.87-.18-9,5.2-1.18,5.59-.56,11.29-.55,16.93.01,4.75-1.58,8.82-4.32,12.5-6.08,8.17-14.2,10.37-23.86,5.57-7.23-3.6-14.41-5.54-22.4-3.82-.66.14-1.26-.33-1.79-.75Z"/>
  <path class="cls-1" d="m0,223.98c10.11-2.47,19.12.91,28.41,4.48,10.63,4.07,22.41-5.05,22.57-16.64.06-4.5.1-9-.02-13.49-.08-2.76.63-5.28,1.76-7.69,1.92-4.1,5.01-4.96,9.39-3.68,6,1.75,11.5,5.17,18.07,5.09,5.28-.07,9.02-2.19,12.15-6.45,2.4-3.26,2.49-7.53,5.35-10.53.56-.59.34-2.32-.03-3.35-1.26-3.57-2.72-7.07-4.14-10.58-.8-1.99-1.96-3.68-4.45-2.94-2.16.64-3.83,2.57-2.93,4.5,2.21,4.76-.04,9.53.71,14.27.71,4.45-3.6,7.89-8.17,6.73-5.62-1.43-11.15-3.21-16.71-4.86-7.94-2.35-16.59,2.67-17.84,10.72-.72,4.67-1.61,9.29-.38,14.26,1.18,4.76-.93,9.68-3.33,13.73-2.06,3.47-5.81,5.35-10.32,3.35-6.34-2.82-12.73-5.53-19.11-8.26-2.07-.89-4.16-1.28-6.02.45-1.42,1.32-3.03,2.02-4.97,1.9v-3c10.14-2.3,19.27.6,28.27,5.06,7.24,3.59,10.59,1.6,12.31-6.36,1.28-5.94-.52-11.83.15-17.82,1.7-15.22,12.34-19.62,25.3-15.94,3.66,1.04,7.08,2.86,10.69,4.1,4.82,1.66,7.68-.21,8.24-5.3.41-3.69-.21-7.27-1.4-10.79-.86-2.56-1.25-5.18.53-7.61,3.21-4.39,8.57-4.57,10.93.39,4.34,9.12,6.03,18.77.62,28.16-5,8.68-14.39,11.51-24.28,7.74-3.26-1.24-6.43-2.73-9.73-3.81-5.36-1.75-7.43-.25-7.59,5.46-.14,4.82-.04,9.65-.02,14.48.03,8.69-3.87,15.42-10.76,20.3-4.87,3.45-10.53,2.66-15.85,1.16-3.8-1.07-7.35-3.05-11.03-4.57-5.69-2.35-11.24-2.86-16.39,1.37v-4Z"/>
  <path class="cls-1" d="m999.81,351.94v14c-4.02,1.94-7.51-.45-10.89-1.77-10.54-4.09-18.82-11.2-25.27-20.44-2.8-4-2.44-8.5.76-11.31,2.9-2.55,8.98-2.63,11.32.87,6.01,9.01,14.53,14.4,24.08,18.64Z"/>
  <path class="cls-1" d="m187.96,666.86c1.3-7.26,3.95-9.2,10.9-7.5,10.99,2.69,22.27,4.09,33.09,7.5h-43.99Z"/>
  <path class="cls-1" d="m502.83,167.02c-9.16-10.18-5.24-23.05,2.56-32.05,5.21-6.02,11.76-10.33,18.84-13.77,3.59-1.74,3.77-3.37,1.12-6.14-6.11-6.4-13.52-8.06-21.92-6.41-12.22,2.39-22.4,9.17-32.9,15.27-14.45,8.4-29.22,16.27-46.03,18.54-23.59,3.19-44.38-2.02-59.46-22.07-3.05-4.05-2.85-8.14.18-10.76,2.91-2.51,7.13-2.11,9.62,1.38,12.99,18.19,31,21.39,51.42,17.38,16-3.14,29.69-11.49,43.48-19.58,9.63-5.66,19.36-11.09,30.55-13.19,15.42-2.89,30.68,1.28,39.31,16.71,1.31,2.35,2.78,2.16,4.91,1.81,18.91-3.11,37.18-1.58,54.3,7.79,2.04,1.12,4.06,2.3,5.96,3.65,3.31,2.36,4.2,5.6,2.34,9.19-1.74,3.36-5.88,4.3-9.57,1.95-8.43-5.38-17.5-8.94-27.4-10.13-8.46-1.02-16.94-1.26-25.22,1.47-1.28-2.85.72-3.63,2.75-3.89,15.39-1.93,30.59-2.27,44.64,5.94,2.45,1.43,4.98,2.72,7.74,3.44,1.54.4,3.09.17,4.04-1.22,1.15-1.68-.21-2.77-1.24-3.82-.94-.95-2.01-1.8-3.19-2.39-15.88-7.88-32.18-13.78-50.28-9.16-6.29,1.6-10.51.23-14.28-5.48-7.34-11.1-22.46-15.65-35.43-12.15-13.25,3.57-24.62,10.81-36.3,17.49-12.78,7.32-25.88,14.07-40.71,15.76-19.23,2.2-36.83-1.13-49.66-17.52-1.17-1.49-2.55-2.99-4.6-1.8-2.3,1.33-1.76,3.51-.69,5.26,4.01,6.59,9.97,11.09,16.68,14.61,10.86,5.69,22.68,7.87,34.68,7.13,7.01-.43,13.87-3.16,20.67-5.5,13.68-4.69,25.78-12.32,38.2-19.4,6.39-3.64,13.02-6.83,20.02-9,10.66-3.3,20.78-2.66,29.1,5.98,4.78,4.96,4.66,7.85-1.11,11.6-5.15,3.36-10.63,6.18-15.13,10.52-3.4,3.28-6.27,6.83-8.06,11.27-2.89,7.2-1.56,14.67,3.64,19.26,5.05,4.45,13.53,4.76,19.99.79,10.36-6.36,13.83-16.57,15.4-27.76.35-2.46.62-4.95.98-7.42.17-1.16.09-2.88,2.17-2.59.76,11.36-.36,22.32-7.12,31.97-5.59,7.97-12.86,12.85-23.12,12.11-3.59-.26-6.69-1.65-9.76-3.29-1.11-.12-1.79-.75-2.13-1.79Z"/>
  <path class="cls-1" d="m389.72,387.72c3.94-.07,6.86,2.54,6.94,6.2.07,3.54-2.99,6.75-6.55,6.85-3.53.1-6.79-2.93-6.94-6.47-.16-3.61,2.73-6.51,6.56-6.58Z"/>
  <path class="cls-1" d="m546.97,24.37c.09,4.06-2.3,6.64-6.27,6.76-4.06.12-6.77-2.34-6.81-6.19-.04-3.93,2.56-6.77,6.31-6.9,3.86-.12,6.69,2.52,6.78,6.33Z"/>
  <path class="cls-1" d="m654.86,298.95c-.34.3-.68.6-1.02.9-2.27.57-4.51,1.42-6.93.84-.49-.07-.89-.3-1.18-.71-2.51-2.78-3.83-5.78-1.61-9.35,1.6-2.58,4.11-3.22,6.9-2.76,4.73.77,6.12,4.88,3.84,11.08Z"/>
  <path class="cls-1" d="m84.82,585.79c-13.76-.43-25.36-17.67-22.24-32.24,2.96-13.83,12.16-22.93,22.23-31.57,4.17-3.58,8.48-7.06,11.41-11.78,5.71-9.22,3.53-16.95-6.01-22.03-5.47-2.91-11.48-4.32-17.3-6.27-3.62-1.21-7.32-2.33-10.71-4.05-13.8-7-18.12-18.8-11.93-32.99,7.05-16.15,18.17-28.86,33.28-38,2.86-1.73,5.83-2.64,8.87-.54,2.29,1.58,2.96,3.97,2.55,6.62-.43,2.75-2.54,4.11-4.69,5.48-9.27,5.86-17.11,13.2-22.79,22.64-2.04,3.4-3.89,6.97-5.3,10.66-2.54,6.62-1.12,10.17,5.03,13.74,3.77,2.19,7.98,3.28,12.13,4.45,6.11,1.71,12.13,3.7,17.67,6.76,18.18,10.01,21.23,30.28,6.7,45.75-6.37,6.78-13.62,12.72-20.19,19.33-4.94,4.97-8.11,10.9-7.69,18.29.36,6.35,4.08,10.87,10.29,12.14,4.85.99,7.31,3.69,6.93,7.59-.39,4.01-3.35,6.16-8.25,6.01Z"/>
  <path class="cls-1" d="m569.93,530.08c.42,3.93-.57,7.61-2.03,11.18-1.78,4.32-3.31,8.61-3.16,13.46.1,3.22-1.68,5.75-5.28,6.21-3.8.48-6.42-1.02-7.68-4.76-1.77-5.28.04-10.17,1.63-15.06.97-3,2.35-5.89,3.12-8.94,1.21-4.77-.46-6.73-5.39-7.3-7.51-.87-14.48,1.76-21.55,3.38-17.1,3.9-28.97-10-27.24-26.84.44-4.27,1.64-8.47,2.41-12.71,1.01-5.59-1.42-8.53-7.15-8.74-4.76-.18-9.11,1.68-13.62,2.74-5.22,1.22-10.52,2.22-15.72.31-9.27-3.39-13.22-11.93-11.05-23.38.46-2.45,1.16-4.85,1.51-7.32.88-6.27-2.83-9.46-8.98-7.86-3.9,1.01-7.32,3.07-10.91,4.79-3.16,1.52-6.04.41-7.94-2.24-1.77-2.46-1.71-5.36.22-7.87,7.72-10.06,27.84-11.18,36.5-2.12,5.38,5.62,4.71,12.46,3.97,19.29-.29,2.63-1.06,5.21-1.41,7.84-.5,3.76.62,6.11,5.07,5.96,3.38-.12,6.56-.92,9.78-1.76,7.02-1.84,14.13-2.66,21.13-.2,9.16,3.23,13.74,11.88,12.13,21.41-.88,5.22-2.65,10.3-2.39,15.72.34,7.31,3.42,10.49,10.61,9.6,5.91-.73,11.66-2.74,17.57-3.39,8.05-.89,16.02-.47,22.12,6.12,3.28,3.54,4.27,7.8,3.76,12.49Z"/>
  <path class="cls-1" d="m889.64,495.06c-.46,9.51,3.32,18.4,5.35,27.62,1.33,6.04,2.65,12.11,1.5,18.28-2.22,11.9-10.52,18.53-20.98,22.78-9.46,3.84-19.74,4.55-29.62,6.77-3.39.76-6.24-1.59-7.01-4.93-.78-3.41.77-6.75,4.53-7.8,5.74-1.61,11.66-2.61,17.51-3.84,5.55-1.17,11-2.5,15.74-5.91,5.54-3.99,7.89-9.04,6.55-15.96-2-10.29-5.23-20.28-6.83-30.67-3.14-20.4,5.89-37.48,24.74-45.72,2.55-1.11,3.72-2.56,3.98-5.55,1.09-12.12,5.28-22.95,14.36-31.49,3.5-3.3,6.67-3.68,9.64-1.07,3.39,2.97,3.7,6.18.2,9.97-4.85,5.25-8.6,10.98-10.1,18.04-1.01,4.74-.55,5.13,4.15,4.82,6.61-.44,13.05.41,18.51,4.48,6.17,4.6,8.18,13.42,4.94,20.24-3.52,7.42-11.96,11.82-19.78,10.39-8.73-1.6-14.71-6.77-18.46-14.54-1.34-2.77-2.22-3.31-5.08-1.65-7.93,4.6-14.96,12.22-13.85,25.77Z"/>
  <path class="cls-1" d="m743.95,331.37c-4.88,10.9-4.81,21.5,1.57,31.9,2.39,3.9,1.5,7.59-1.72,9.65-3.34,2.14-7.38,1.14-9.77-2.94-8.75-14.93-9.53-30.19-1.05-45.48,1.51-2.73,1.95-4.83.73-7.79-8.76-21.12.95-43.95,22.18-52.71,4.82-1.99,9.83-3.04,14.95-3.68,5.79-.72,9.75,1.86,9.99,6.35.23,4.39-2.84,6.79-8.81,7.16-11.94.75-20.72,6.44-26.18,17.12-2.45,4.8-2.52,9.94-1.77,15.11.45,3.11,1.31,4.88,5.1,2.48,4.01-2.54,8.41-4.79,13.47-4.67,5.72-.28,11.42-1.61,16.89,1.84,4.75,2.99,7.8,6.71,7.77,12.43-.03,6.3-3.44,10.68-8.71,13.57-9.68,5.32-19.54,5.43-29.54.63-1.48-.71-2.99-3.02-5.11-.97Z"/>
  <path class="cls-1" d="m743.95,331.37c1.17-2.62,2.81-.92,4.1-.29,6.07,2.98,12.37,4.76,19.18,3.85,6.96-.93,16.5-5.67,18.67-12.22,1.68-5.06.71-9.18-2.71-12.84-3.62-3.88-7.82-6.63-13.57-5.96-2.3.27-4.65,0-6.98-.03,6.09-1.81,12.07-1.78,17.76,1.32,8.85,4.82,10.51,15.84,3.6,23.22-7.88,8.41-22.28,10.52-34.15,5.1-1.89-.87-3.5-2.64-5.91-2.14Z"/>
  <path class="cls-1" d="m663.88,441.9c2.66-2.12,5.98-1.87,9.04-2.45,10.79-2.03,21.58-4.04,32.4-5.85,7.63-1.28,12.96,3.09,12.45,10.87-.69,10.44-2.15,20.84-3.39,31.24-.59,4.92-.68,5.01,4.33,4.19,10.85-1.76,21.52-4.33,32.14-7.09,1.29-.33,2.56-.72,3.86-1.02,6.68-1.53,9.9,1.11,9.29,8.04-.45,5.13-1.26,10.24-2.25,15.29-2.19,11.26-4.6,22.48-6.91,33.72-.61,2.96-1.88,5.37-5.09,6.12-4.93,1.14-8.83-2.33-7.99-7.79,1.14-7.39,2.99-14.66,4.48-21.99.87-4.24,1.7-8.48,2.44-12.74.79-4.52.11-5.23-4.26-4.17-10.51,2.54-21.11,4.62-31.81,6.18-1.32.19-2.63.4-3.96.51-6.95.59-9.48-1.59-8.83-8.46.97-10.26,2.35-20.49,3.57-30.73.06-.5.19-.98.25-1.48.88-6.88.64-6.98-6.4-5.78-7.04,1.2-13.97,3.12-21.14,3.49-4.1.46-8.09,2.38-12.34.96-1.63-.77-2.9-1.83-2.98-3.81-.63-3.13.54-5.49,3.11-7.25Z"/>
  <path class="cls-1" d="m663.75,452.97c4.11-.32,8.23-.64,12.34-.96-4.04,1.29-8.03,3.21-12.34.96Z"/>
  <path class="cls-1" d="m663.88,441.9c-1.64,2.16-2.59,4.61-3.11,7.25-1.49-3.5-.56-5.96,3.11-7.25Z"/>
  <path class="cls-1" d="m587.85,389.88c-1.64.04-3.29.07-4.93.11-9.35.71-18.7.71-28.05,0-3.98-2.48-4.34-5.98-2.76-9.99,8.39-21.24,18.04-41.83,31.52-60.42,4.8-6.62,10.61-6.12,13.98,1.3,8.72,19.23,17.39,38.48,26.09,57.72,1.79,3.96.87,7.1-2.75,9.46-8.97,2.31-18.13,1.02-27.2,1.38-1.97.08-3.99-.46-5.89.44Z"/>
  <path class="cls-1" d="m587.85,389.88c1.75-1.42,3.83-.79,5.76-.83,9.12-.19,18.24-.1,27.33-.99-3.08,1.91-6.53,1.82-9.95,1.82-7.71.01-15.43,0-23.14,0Z"/>
  <path class="cls-1" d="m554.86,389.99c9.35,0,18.7,0,28.05,0-9.35,1.25-18.7,1.9-28.05,0Z"/>
  <path class="cls-1" d="m393.83,597.81c1-8.76,1.91-17.54,3.03-26.28.7-5.44,5.47-8.06,10.31-5.39,17.05,9.42,34.03,18.95,50.92,28.65,5.69,3.27,5.97,8.53.84,12.56-18.13,14.22-37.37,26.67-58.65,35.76-2.85,1.22-5.82,1.89-8.54-.13-2.75-2.04-2.97-4.97-2.37-8.13.37-1.96.43-3.97.63-5.96.74-4.68,1.38-9.38,1.82-14.1.07-.96.14-1.92.21-2.87.66-4.7,1.36-9.39,1.79-14.11Z"/>
  <path class="cls-1" d="m391.82,614.8c.46,4.84-.25,9.53-1.82,14.1-.46-4.84.63-9.48,1.82-14.1Z"/>
  <path class="cls-1" d="m393.83,597.81c.45,4.84-.28,9.52-1.79,14.11-.53-4.85.56-9.49,1.79-14.11Z"/>
  <path class="cls-1" d="m899.96,141.27c.49,8.59-2.92,16.19-9.97,22.19-3.2,2.72-6.45,3.52-9.58-.11-2.88-3.35-2.54-6.54.45-9.72,6.81-7.22,7.82-15.24,3.18-24.16-5.09-9.77-14.88-15.53-24.26-14.18-8.27,1.19-15.17,4.72-19.73,12.03-2.98,4.77-6.56,6.04-10.23,3.64-3.46-2.26-3.97-6.68-1.07-11.07,6.72-10.18,16.34-16.2,28.26-17.72,23.18-2.94,42.99,15.01,42.95,39.08Z"/>
  <path class="cls-1" d="m238.93,123.05c-8.2-.73-14.85-4.34-19.62-11.05-2.35-3.3-1.62-6.98,1.39-9.27,2.74-2.09,6.47-1.88,8.95.96,6.35,7.26,14.09,7.61,22.24,4.31,8.85-3.58,15.15-9.77,16.14-19.77,1.08-10.86-3.04-19.43-12.3-25.45-4.13-2.68-5.26-6.83-2.99-10.13,2.19-3.18,6.08-3.8,10.18-1.21,13.24,8.38,19.65,20.69,18.82,36.13-.83,15.36-9.54,25.78-23.14,32.31-2.08,1-4.38,1.54-6.57,2.29-4.35.53-8.62,2.29-13.1.88Z"/>
  <path class="cls-1" d="m238.93,123.05c4.37-.29,8.73-.59,13.1-.88-4.27,1.73-8.58,2.9-13.1.88Z"/>
  <path class="cls-1" d="m234.86,255.78c.07,5.23-3.53,8.05-9.09,6.61-8.21-2.12-16.41-4.33-24.46-6.97-13.76-4.52-27.08-10.14-39.82-17.11-2.71-1.49-5.25-2.95-5.44-6.5-.2-3.74,2.15-5.66,4.99-7.37,18.1-10.89,36.18-21.82,54.26-32.74,4.74-2.86,9.73-.9,10.56,4.42,3.06,19.54,5.96,39.11,8.92,58.66.05.33.05.66.07,1Z"/>
  <path class="cls-1" d="m710.11,650.73c-18.75-.6-33.47-8.65-44.17-24.02-3.14-4.51-2.82-7.47.66-9.91,3.51-2.46,8.17-1.59,10.77,2.52,12.47,19.76,40.31,23.66,58.08,8.93,3.91-3.24,7.49-2.99,10.14.04,2.64,3.01,2.06,6.99-1.92,10.38-9.64,8.22-21.04,11.72-33.56,12.06Z"/>
  <path class="cls-1" d="m271.25,489.58c.9-17.81,10.01-30.71,25.09-35.96,15.23-5.3,31.55-1.44,41.55,9.91,3.85,4.37,6.21,9.42,6.18,15.37-.02,3.66-1.87,6.13-5.45,6.67-3.56.53-6.17-1.33-7.35-4.68-4.41-12.58-12.07-17.5-25.25-16.07-11,1.19-19.76,9.96-21.1,21.37-.65,5.54.12,10.89,2.76,15.96,2.28,4.36,1.3,8.08-2.21,9.91-3.54,1.85-7.09.41-9.47-3.75-3.4-5.94-4.4-12.46-4.76-18.73Z"/>
  <path class="cls-1" d="m905.96,276.57c.95,18.84-12.94,31.07-27.83,31.15-15.79.09-27.87-13.04-27.39-28.66.51-16.29,13.01-29.07,29.25-29.02,15.35.05,26,10.94,25.96,26.53Z"/>
  <path class="cls-1" d="m544.96,128.02c-2.1,2.5-1.7,5.87-1.73,8.5-.1,8.34-3.31,15.46-7.34,22.27-4.24,7.17-11.48,10.64-19.25,11.86-7.21,1.13-15.89-7.82-16.8-15.48-.83-7.04,2.18-12.71,6.28-17.66,4.22-5.09,9.46-9.17,15.41-12.44,10.73-5.9,10.1-6.91,1.7-14.22-7.7-6.69-16.67-6.06-25.37-3.15-11.99,4.01-22.7,10.71-33.57,17.12-5.75,3.39-11.78,6.48-18.21,8.83-7.95,2.9-15.99,5.38-24.07,7.81-1.83.55-3.58.63-5.4.29-1.14-.21-2.28-.79-3.38-.7-13.68,1.09-25.55-3.9-36.53-11.26-4.33-2.91-8.21-6.58-10.67-11.46-1.33-2.63-1.32-4.81,1.31-6.45,2.94-1.83,4.72-.38,6.63,2.06,8.02,10.22,18.56,16.89,31.47,17.77,17.82,1.22,34.6-3.1,50.28-12.05,9.15-5.23,18.14-10.75,27.57-15.55,6.43-3.27,13.21-5.97,19.97-7.21,7.28-1.34,15.12.25,22.06,4.02,4.77,2.59,8.67,6.02,11.64,10.61,3.99,6.13,4.41,6.58,12.32,4.03,6.24-2.01,12.63-2.21,18.64-1.31,11.81,1.75,23.35,5.08,33.64,11.61.97.62,1.96,1.29,2.74,2.12,1.29,1.36,3.82,2.85,1.81,4.86-1.66,1.65-3.64,3.59-6.94,2.13-7.09-3.14-13.6-7.57-21.39-9.22-10.23-2.17-20.44-1.13-30.67-.47-1.74.11-2.12,1.33-2.2,2.78,0,0,.03-.05.03-.05Z"/>
  <path class="cls-1" d="m505.94,286.43c-.04,17.98-12.24,31.46-28.42,31.41-15.23-.05-26.76-12.18-26.77-28.15,0-16.66,12.46-29.7,28.64-29.47,14.05.2,27.89,10.7,26.54,26.21Z"/>
  <path class="cls-1" d="m234.17,401.15c.33,3.1-1.35,5.21-4.26,6.32-3.03,1.16-5.65.13-7.43-2.44-2.08-2.99-3.63-6.36-5.86-9.23-12.49-16.05-33.83-20.07-51.32-9.72-2.57,1.52-5.12,2.61-7.97,1.38-4.96-2.14-5.43-8.22-.67-11.72,7.42-5.46,16.07-7.91,25.13-8.57,21.61-1.59,41.71,10.08,51.31,29.48.68,1.38,1.1,2.76,1.08,4.51Z"/>
  <path class="cls-1" d="m692.19,54.23c-.09,17.99-15.52,29.92-30.48,28.54-15.15-1.4-26.09-15.06-24.55-30.34,1.77-17.6,15.14-28.22,33.29-26.44,13.8,1.35,23.22,13.6,21.74,28.25Z"/>
  <path class="cls-1" d="m354.69,329.88c-4.42,6.11-10.77,10.25-16.04,15.5-2.72,2.71-7.31,1.73-9.59-1.64-2.89-4.26-.65-7.44,2.73-10.17.97.6,1.03,1.55.98,2.54-.06.46-.18.92-.34,1.35-1.04,2.18-.95,4.21,1.25,5.55,2.13,1.3,3.24-.43,4.35-1.87,3.89-5.36,9.9-8.63,13.75-14.02,5.2-7.28.84-18.03-8.54-20.72-3.02-.87-6.03-1.6-8.45-3.74-.1-.58.13-.96.69-1.14,6.85-.42,12.74,1.58,17.34,6.85.23.23.46.47.7.7,6.28,6.68,6.63,12.85,1.18,20.81Z"/>
  <path class="cls-1" d="m956.71,200.07c3.57.06,6.69,3.16,6.74,6.69.05,3.31-3.32,6.81-6.62,6.89-3.63.09-6.99-3.33-6.92-7.03.07-3.51,3.28-6.61,6.8-6.55Z"/>
  <path class="cls-1" d="m987.85,555.11c.06,3.95-2.88,6.89-6.84,6.82-3.7-.06-6.47-2.96-6.43-6.71.04-3.75,2.83-6.53,6.59-6.57,3.72-.04,6.62,2.77,6.68,6.45Z"/>
  <path class="cls-1" d="m409.87,226.79c-.13,3.69-3.06,6.37-6.88,6.29-3.78-.08-6.35-2.89-6.22-6.81.13-3.88,2.9-6.46,6.75-6.27,3.82.19,6.48,3.03,6.35,6.78Z"/>
  <path class="cls-1" d="m667.63,535.66c3.39.07,6.17,3.05,6.03,6.49-.14,3.45-3.48,6.62-6.87,6.5-2.6-.09-6.91-4.3-6.92-6.75,0-2.83,4.31-6.3,7.75-6.24Z"/>
  <path class="cls-1" d="m824.93,420.72c-3.57,0-6.78-3.09-6.78-6.52,0-3.71,2.77-6.51,6.55-6.61,4.03-.11,7.11,2.78,7.01,6.59-.09,3.55-3.18,6.53-6.77,6.53Z"/>
  <path class="cls-1" d="m207.06,524.07c.07,3.82-2.68,6.72-6.42,6.78-3.76.06-6.65-2.79-6.63-6.54.02-3.71,2.93-6.51,6.72-6.48,3.62.03,6.27,2.65,6.34,6.25Z"/>
  <path class="cls-1" d="m800.38,42.16c3.42.11,6.59,3.49,6.28,6.92-.37,3.99-2.67,6.38-6.68,6.64-3.74.24-6.46-3.05-6.29-7.21.16-3.83,2.95-6.48,6.7-6.35Z"/>
  <path class="cls-1" d="m138.15,78.47c-.09,3.73-3.08,6.54-6.75,6.35-3.69-.2-6.55-3.28-6.4-6.9.16-3.76,3.03-6.35,6.9-6.21,3.98.14,6.35,2.71,6.25,6.77Z"/>
  <path class="cls-1" d="m530.69,635.78c-3.4-.12-6.62-3.44-6.61-6.82,0-3.55,3.05-6.26,6.94-6.19,3.63.06,6.71,3.11,6.64,6.58-.06,3.28-3.6,6.55-6.97,6.44Z"/>
  <path class="cls-1" d="m52.44,639c-.07,3.55-3.25,6.63-6.91,6.29-3.76-.34-6.11-2.52-6.31-6.42-.2-3.75,3.23-7.02,6.96-6.87,3.57.14,6.33,3.24,6.25,7Z"/>
  <path class="cls-1" d="m39.55,335.04c-.69-6.68,3.36-9,10.44-5.99,2.41,4.69,1.89,7.81-1.63,9.81-2.84,1.61-5.87.3-8.81-3.82Z"/>
  <path class="cls-1" d="m39.55,335.04c5.27,4.66,7.47,4.93,10.31,1.55,2.16-2.58.59-5.02.13-7.54,3.37,1.74,2.56,4.71,1.69,7.22-.84,2.43-2.97,3.81-5.77,3.72-3.33-.11-5.59-1.57-6.36-4.95Z"/>
  <path class="cls-1" d="m65.99,561.63c.84-10.48,3.54-20.01,11.86-27.42,6.65-5.91,12.81-12.38,19.02-18.76,7.05-7.25,8.49-17,2.75-23.85-4.32-5.15-10.2-8.76-16.83-10.74-7.75-2.31-15.7-3.92-22.6-8.72-4.87-3.39-7.57-7.97-8.93-13.3-1-3.93,1.38-7.74,2.62-11.39,5.31-15.55,15.71-27.08,29.49-35.74,1.25-.79,2.31-1.88,4-1.8,1.4.07,2.75.23,3.31,1.7.58,1.52-.27,2.55-1.58,3.23-6.4,3.32-11.69,7.92-16.61,13.2-7.02,7.54-11.98,16.17-15.27,25.8-1.5,4.39,2.19,11.6,6.34,13.9,8.49,4.7,18.05,6.5,26.93,10.15,7.16,2.94,12.55,7.73,16.69,14.28,4.17,6.6.81,18.99-4.56,25.52-5.58,6.8-12.08,12.63-18.91,18.21-7.03,5.75-11.02,13.81-12.5,22.64-.94,5.6,5.69,15.99,12.61,17.31.81.16,1.72.03,2.44.35,1.39.63,2.78,1.62,2.47,3.34-.31,1.73-1.97,2.23-3.49,2.17-9.63-.36-19.36-11.17-19.26-20.08Z"/>
  <path class="cls-1" d="m460.94,463.93c-.27-2.88.35-5.95.88-9.08,2.32-13.71-5.96-15.44-14.97-13.3-2.86.68-5.52,2.26-8.23,3.52-1.64.76-3.28,1.35-4.28-.67-.96-1.94-.26-3.5,1.7-4.53,6.05-3.19,12.14-5.88,19.33-5,7.28.89,12.5,6.23,12.54,13.44.02,4.15-.34,8.24-.91,12.37-1.61,11.73,3.59,16.11,15.01,12.58,5.81-1.8,11.61-2.55,17.65-2.39,10.67.28,16.72,8.3,14.62,18.69-1.22,6.05-3.02,12.16-1.54,18.54,2.36,10.23,6.78,10.94,16.56,10.31,5.66-.37,11.17-2.83,16.8-4.06,8.58-1.88,18.66,4.68,20.46,12.9.64,2.94-.48,5.62-.95,8.3-1.05,5.98-3.99,11.53-4.46,17.73-.14,1.85-.91,3.68-3.38,3.5-2.33-.17-2.2-2.33-2.61-3.75-1.19-4.12.65-7.9,2.09-11.56,1.11-2.8,1.91-5.65,2.61-8.54,1.7-6.98-2.79-12.09-10.04-12.11-7.58-.02-14.73,2.12-21.76,4.26-7.8,2.37-19.39-6.47-21.16-13.51-1.77-7.06-.4-13.78,1.11-20.56.94-4.21.95-8.59-2.24-11.45-3.15-2.82-7.35-4.32-11.99-3.15-4.97,1.25-9.96,2.48-15.02,3.29-9.17,1.47-19.29-1.89-17.82-15.78Z"/>
  <path class="cls-1" d="m925.11,454.77c4.78-.37,9.2.43,13.41,2.95,4.17,2.5,6.09,6.39,5.81,10.73-.37,5.85-5.61,11.58-10.08,12.39-9.13,1.66-18.71-3.44-22.32-12.11-1.7-4.08-4.19-5.96-8.49-3.84-11.51,5.69-21.4,18.28-18.2,33.63,2.16,10.33,4.75,20.57,7.25,30.83,2.94,12.1-4.51,24.92-16.86,29.79-9.29,3.66-19.2,4.66-28.66,7.52-1.54.47-3.17.26-3.81-1.44-.79-2.11.78-3.12,2.42-3.65,3.15-1.01,6.32-2.14,9.57-2.61,8.41-1.21,16.49-3.15,23.86-7.64,5.01-3.05,7.22-7.58,7.79-13.13.77-7.58-1.14-14.83-3.09-22.01-3.29-12.13-5.23-24.43-1.09-36.54,2.97-8.68,9.1-15.38,17.83-19.05,5.32-2.24,7.82-5.32,8.74-11.69,1.35-9.38,5.16-18.43,11.28-26.1,1.35-1.69,3.26-2.78,5.19-1.18,2.07,1.72.28,3.55-.88,4.66-3.84,3.66-5.81,8.5-8.42,12.9-2.79,4.69-1.59,9.64.31,14.39.62,1.54,1.56,2.37,3.5,1.77,1.55-.47,3.27-.4,4.92-.57Z"/>
  <path class="cls-1" d="m736.86,346.24c-.89,6.52,2.37,12.47,4.63,18.65.48,1.32,2.25,2.46.45,3.83-2.16,1.64-4,.16-5.09-1.44-3.3-4.88-5.27-10.45-5.89-16.23-.98-9.12.96-17.77,5.67-25.76,2.12-3.6,1.27-7.32.18-11.09-6.47-22.51,1.29-38.17,21.92-47.16,4.81-2.1,9.64-2.13,14.62-2.04,1.36.02,2.91.15,3.03,1.87.13,1.78-1.47,1.82-2.77,2.17-4.8,1.27-9.64,2.47-14.36,4-13.6,4.4-22.78,23.1-18.05,36.5,1.37,3.89,4.91,4.82,10.03,2.19,6.33-3.26,12.8-5.27,20.06-4.83,6.6.4,12.17,4.23,13.38,9.94.93,4.37-3.44,10.67-9.02,13.06-8.15,3.49-16.08,4.25-24.41-.08-7.56-3.93-13.69.61-14.36,10.03-.14,1.99-.02,4-.02,6.41Z"/>
  <path class="cls-1" d="m699.48,444.92c-8.64.95-17.72,2.61-26.77,4.55-.65.14-1.31.43-1.94.38-2.31-.19-5.59,1.27-6.32-2.19-.69-3.3,2.66-3.29,4.66-3.89,8.73-2.61,17.77-3.62,26.77-4.79,2.31-.3,4.52-.44,6.76-1.33,3.15-1.25,6.78-1.76,9.46.7,2.69,2.47,2.97,5.85,2.36,9.65-1.51,9.45-2.72,18.96-3.49,28.5-.48,5.98,1.94,7.19,7.78,6.7,12.63-1.06,24.37-6.02,36.83-7.72,3.75-.51,5.78,1.17,5.17,4.91-2.39,14.67-4.89,29.33-8.48,43.77-.28,1.11-.34,2.29-.43,3.44-.2,2.7-1.77,3.99-4.28,3.49-2.35-.47-2.98-2.27-2.47-4.63,2.18-10,4.28-20.01,6.41-30.02.14-.65.26-1.3.32-1.96.92-10.13-.96-12.14-10.52-9.32-5.28,1.56-10.59,2.55-15.95,3.33-4.95.71-9.63,2.36-14.51,3.25-6.24,1.14-9.1-1.51-7.8-7.67,2.33-11.02,2.22-22.34,4.32-33.39.7-3.69-2.3-5.82-7.9-5.76Z"/>
  <path class="cls-1" d="m615.32,385.85c-17.5-2.13-34.91.34-52.35,1.07-1.33.06-2.7.19-3.99-.05-3.12-.58-4.79-2.04-3.28-5.57,6-13.99,11.47-28.17,19.79-41.13,3.72-5.8,6.78-12.11,10.76-17.81,3.21-4.6,6.1-4.34,8.16.78,7.69,19.08,17.17,37.36,25.22,56.28,1.62,3.81-.26,6.69-4.32,6.44Z"/>
  <path class="cls-1" d="m405.89,609.85c.57,3.7-.32,7.28-.92,10.87-.59,3.57.86,4.43,4.03,3.25-1.1,1.67-2.85,2.75-4.56,1.93-1.4-.67-.6-2.7-.51-4.09.26-4.04.49-8.1,1.96-11.95Z"/>
  <path class="cls-1" d="m407.86,593.84c.4,5.15-.46,10.14-1.89,15.06-.33-5.14.17-10.18,1.89-15.06Z"/>
  <path class="cls-1" d="m301.94,462.91c-10.17,2.39-16.22,9.02-19.37,18.71-.49,1.5-.64,2.82-.13,4.33.95,2.83,1.46,5.53-.09,8.55-1.39,2.71.9,5.07,2.22,7.28.9,1.5,1.6,2.88,1.3,4.63-.28,1.62-1.29,2.72-2.77,3.24-1.51.53-2.7-.44-3.34-1.59-4.15-7.5-7.13-15.22-5.01-24.11,1.51-6.37,3.95-12.09,7.87-17.45,3.55-4.84,8.09-7.59,13.43-9.67,15.61-6.07,30.89-.84,40.89,10.51,2.96,3.36,2.09,8.2,5.26,11.5.72.75-1.9,2.42-3.38,2.87-2.27.69-5.16.04-5.34-2.27-.8-10.45-9.26-12.81-16.54-16.52-5-.23-10-1.13-15,0Z"/>
  <path class="cls-1" d="m301.94,462.91c5-1.63,10-1.63,15,0-5,1.42-10-.59-15,0Z"/>
  <path class="cls-1" d="m601.61,251.34c2.24-9.02,4.45-18.05,6.72-27.06,1.46-5.8,3.04-11.56,4.51-17.36,2.26-8.92,7.34-11.33,15.55-7.02,8.24,4.33,16.38,8.86,24.48,13.46,3.04,1.72,4.78,2.48,5.33-2.29,1.25-11.04,3.01-22.02,4.59-33.02.96-6.7,4.46-9.03,10.76-6.21,9.24,4.14,18.27,8.77,27.22,13.49,8.56,4.52,8.35,4.63,9.11-5.28.86-11.1,2.79-22.07,5.79-32.8,1.99-7.13,7.18-9.25,13.87-5.79,14.18,7.35,28.33,14.77,42.47,22.2,4.7,2.47,6.32,6.45,4.28,10.15-2.02,3.66-5.97,4.14-10.9,1.56-11.35-5.94-22.82-11.65-34.06-17.78-3.66-1.99-4.45-.67-5.01,2.58-2.15,12.61-4.22,25.22-4.45,38.05-.14,7.93-4.85,10.86-11.88,7.25-10.36-5.31-20.76-10.56-30.94-16.2-3.62-2.01-4.22-.56-4.63,2.5-1.49,11.18-3.13,22.34-4.5,33.54-.86,7.05-5.69,9.54-12.03,6.04-9.61-5.3-19.36-10.37-28.9-15.81-3.62-2.06-4.41-.71-5.19,2.62-2.53,10.83-5.28,21.61-8.04,32.39-.65,2.54-1.01,5.35-3.44,7-2.21,1.5-4.58,1.85-7.07.51-2.69-1.45-3.58-3.78-3.65-6.74Z"/>
  <path class="cls-1" d="m688.87,52.06c.66,16.36-11.69,27.21-24.37,27.02-13.73-.22-23.94-10.08-23.54-24.02.53-18.7,11.03-25.15,25.35-25.78,12.78-.57,23.63,8.83,22.56,22.79Z"/>
  <path class="cls-1" d="m334.83,301.05c.05.26.13.52.24.76,0,0-.18.24-.18.24-2.73,3.32-5.36.24-8.03-.13-4.78-3.19-5.47-5.56-2.77-10.23,1.91-3.31,4.13-6.4,6.93-9.04,1.58-1.48,2.9-3.18,3.92-5.1.92-1.74.47-3.31-.86-4.49-1.3-1.16-2.93-.9-4.05.27-6.15,6.49-12.17,13.15-15.37,21.66-1.32,3.52,1.7,6.14,3.24,8.98,2.52,3.78,6.09,5.96,10.45,7.01,3.54.85,7.18,1.27,10.68,2.27,7.33,2.1,9.08,7.82,4.2,13.58-2.26,2.67-4.86,5-7.94,6.68-.82.45-2.58,1.89-2.5-.89,3.05-2.81,6.25-5.46,9.1-8.46,3.23-3.42,2.45-6.48-2.05-7.89-3.48-1.09-7.14-1.6-10.74-2.27-10.64-2-17.73-9.7-17.32-18.76.13-2.95,1.14-5.61,2.7-7.94,3.89-5.81,8.23-11.3,13.02-16.41,3.01-3.21,6.44-3.62,9.69-.64,3.27,3,3.03,6.56.19,9.76-3.83,4.31-7.51,8.72-10.56,13.63-1.1,3.12.34,4.78,3.15,5.89,1.62.64,3.41.67,4.95,1.53h-.08Z"/>
  <path class="cls-1" d="m332.79,332.62c4.78-.58,12.16-7.84,12.11-12.03-.03-3.34-2.18-5.05-5.12-5.78-4.29-1.06-8.72-1.64-12.93-2.94-4.22-1.3-8.37-3.08-9.91-7.92.46-.3.96-.35,1.47-.17,5.1,4.4,11.18,6.29,17.73,7.1,3.18.39,6.15,1.49,8.53,3.75,3.76,3.58,4.25,8.15.68,11.91-3.91,4.12-7.48,8.83-13.42,10.39-.05-1.12-.09-2.25-.14-3.37.33-.32.66-.64.99-.96Z"/>
  <path class="cls-1" d="m331.94,336.95c3.86-3.36,7.88-6.56,11.54-10.12,4.99-4.85,3.54-10.8-3-13.57-4.14-1.75-8.67-1.57-12.96-2.97-4.02-1.31-7.19-2.99-9.58-6.33-4.18-4.77-4.86-10.14-1.23-14.96,3.68-4.9,7.23-9.91,11.29-14.52,1.8-2.04,4.04-3.62,6.47-1.82,2.47,1.84,1.51,4.47-.01,6.67-2.93,4.23-7.18,7.34-9.88,11.83-3,5-2.62,7.25,2.55,10.49,4.69,2.09,9.85,2.45,14.72,3.96,5.72,1.77,10.17,4.68,11.99,10.69.15,2.99.19,5.99-.04,8.98-.24,1.15-1.13,1.86-1.85,2.68-2.75,6.13-9.6,8.46-13,13.99-2.01.99-3.94,2.99-6.31.91-1.93-1.69-1.68-3.8-.69-5.91Z"/>
  <path class="cls-1" d="m352.93,315.95c-2.47-6.13-7.49-8.59-13.55-10.1-4.2-1.05-8.82-.96-12.45-3.9-.35-.22-.46-.44-.35-.67.11-.22.23-.33.35-.33,2.74-.31,5.01,2.85,7.95,1.08,4.58,2.78,10.31,2.72,14.67,6.2,4.71,3.76,7.39,12.51,5.1,17.95-.51,1.22-1.5,1.67-2.73,1.76.02-.82.19-1.57,1-2,.85-3.33.85-6.66,0-10Z"/>
  <path class="cls-1" d="m331.94,336.95q.13,6.07,7,5c-1.53,2.54-3.53,4.29-6.33,1.99-2.3-1.89-3.68-4.36-.67-6.99Z"/>
  <path class="cls-1" d="m581.04,380.93c-3.16,0-6.31.06-9.47-.01-6.27-.14-8.43-3.31-6.01-9.17,3.73-9.03,8.48-17.57,13.27-26.06,1.94-3.43,3.12-7.33,6.02-10.25,4.35-4.37,6.29-4.11,9.38,1.15,2.97,5.04,4.32,10.76,6.91,15.95,3.03,6.08,5.95,12.22,8.72,18.43,2.16,4.83-.2,8.6-5.53,8.91-3.96.23-7.89.23-11.85.89-3.72.62-7.62.13-11.44.13v.02Z"/>
  <path class="cls-1" d="m664.87,186.99c1.19-15.12,3.15-13.46,13.92-8.46,8.4,3.9,16.53,8.37,24.77,12.6,3.72,1.91,7.08.64,7.87-3.56,1.68-8.91,3.12-17.86,4.36-26.84.64-4.63,1.75-9.11,3.2-13.49,1.33-3.99,4.83-4.13,7.82-2.62,14.21,7.19,28.29,14.63,42.39,22.05,1.86.98,4.53,2.19,3.15,4.75-1.54,2.86-4.35,1.66-6.61.51-10.94-5.58-21.82-11.27-32.75-16.85-6.8-3.47-8.86-2.06-10.27,5.36-1.11,5.84-2.19,11.66-2.87,17.55-1.49,3.56.53,7.44-1,11v2c-1.42,3.22.37,6.77-1,10-5.29,4.99-9.55.02-13.31-2.14-7.93-4.56-16.23-8.32-24.32-12.53-5.02-2.61-8-1.55-9.22,4.16-1.86,8.7-3.13,17.55-4.06,26.4-1.44,13.7-2.44,14.64-13.78,8.26-6.94-3.91-13.98-7.66-20.97-11.48-9.32-5.09-10.52-1.78-13.1,7.01-2.86,9.76-4.93,19.75-7.48,29.6-.55,2.12-1.18,5.18-4.36,4.1-2.65-.9-2.43-3.31-1.75-5.9,3.52-13.44,6.81-26.94,10.21-40.42,1.47-5.82,3.94-7.55,9.28-5.04,8.85,4.16,17.38,8.98,25.97,13.68,4.84,2.64,8.42,1.17,10.01-4.18,1.51-5.09.28-10.66,2.9-15.52,1.42-3.22-.37-6.77,1-10Z"/>
  <path class="cls-1" d="m718.86,188.99c.53-3.65-1.14-7.5,1-11-.8,3.62,1.89,7.56-1,11Z"/>
  <path class="cls-1" d="m664.87,186.99c-.46,3.32,1.04,6.84-1,10,.46-3.32-1.04-6.84,1-10Z"/>
  <path class="cls-1" d="m717.86,200.99c.46-3.32-1.04-6.84,1-10-.46,3.32,1.04,6.84-1,10Z"/>
  <path class="cls-1" d="m665.09,36.03c9.01,0,14.92,3.75,17.09,10.59,2.11,6.65-1.91,20.6-9.18,23.94-7.36,3.38-16.33,2.6-21.79-2.75-4.61-4.51-5.89-15.87-2.14-22.03,3.7-6.06,8.5-10.67,16.01-9.76Z"/>
  <path class="cls-1" d="m326.94,300.96v1c-5.36-2.43-6.69-6.41-3.36-10.93,2.15-2.91,4.69-5.54,7.08-8.27.76-.87,1.74-1.58,2.4-2.52,1.44-2.05,3.28-4.83,1.04-6.63-2.54-2.04-4.64.18-6.36,2.6-2.48,3.47-5.21,6.85-7.96,10.04-5.01,5.83-5.17,11.39-1.83,17.7h-1c-4.68-5.35-5.3-8.99-1.29-14.89,3.7-5.44,8.09-10.42,12.26-15.54,1.95-2.39,4.53-3.98,7.23-1.52,2.34,2.14,2.19,4.75.12,7.52-3.16,4.23-7.39,7.54-9.94,12.33-2.49,4.67-2.58,5.51,1.63,9.09Z"/>
  <path class="cls-1" d="m352.93,315.95c1.57,3.33,1.57,6.66,0,10v-10Z"/>
  <path class="cls-1" d="m568.94,373.96c.48,2.67,2.58,2.04,4.29,2.05,7.9.03,15.79,0,23.69,0-3.44,1.75-7.14.68-10.71.88-4.96.27-9.94.2-14.91.2-2.04,0-4.63.23-2.36-3.12Z"/>
</svg>