<?xml version="1.0" encoding="UTF-8"?>
<svg id="Layer_2" data-name="Layer 2" xmlns="http://www.w3.org/2000/svg" viewBox="0 0 955.77 723.08">
  <defs>
    <style>
      .cls-1 {
        fill: #fff;
      }

      .cls-2 {
        fill: #231f20;
      }
    </style>
  </defs>
  <g id="Layer_1-2" data-name="Layer 1">
    <g>
      <rect class="cls-1" width="955.77" height="723.08"/>
      <g>
        <path class="cls-2" d="m281.17,341.86c-3.84-1.32-6.99-1.98-9.45-1.98-1.55,0-2.76.3-3.65.9-.89.6-1.33,1.48-1.33,2.62,0,1.6.86,2.85,2.58,3.74,1.72.89,4.44,1.85,8.16,2.88,4.24,1.2,7.73,2.42,10.48,3.65,2.75,1.23,5.14,3.11,7.17,5.63,2.03,2.52,3.05,5.84,3.05,9.97s-1.1,7.72-3.31,10.61c-2.21,2.89-5.18,5.06-8.94,6.49-3.75,1.43-7.95,2.15-12.59,2.15-5.15,0-10.33-.87-15.51-2.62-5.18-1.75-9.67-4.14-13.45-7.17l6.7-13.58c3.04,2.64,6.74,4.85,11.13,6.66,4.38,1.8,8.15,2.71,11.3,2.71,1.95,0,3.47-.37,4.55-1.12,1.09-.74,1.63-1.8,1.63-3.18,0-1.66-.89-2.93-2.66-3.82-1.78-.89-4.53-1.82-8.25-2.79-4.18-1.09-7.65-2.22-10.4-3.39-2.75-1.17-5.13-2.99-7.13-5.46-2.01-2.46-3.01-5.7-3.01-9.71s1.03-7.29,3.09-10.18c2.06-2.89,4.97-5.11,8.72-6.66,3.75-1.55,8.12-2.32,13.1-2.32,4.52,0,9.02.64,13.49,1.93,4.47,1.29,8.36,2.99,11.69,5.11l-6.62,13.75c-3.21-1.89-6.73-3.49-10.57-4.81Z"/>
        <path class="cls-2" d="m333.41,387.49l-8.51-16.24-3.52,3.69v12.54h-17.36v-63.75h17.36v31.02l12.89-14h19.59l-17.1,18.04,17.18,28.7h-20.54Z"/>
        <path class="cls-2" d="m373.02,320.98c1.66,1.66,2.49,3.81,2.49,6.44s-.83,4.78-2.49,6.44c-1.66,1.66-3.81,2.49-6.44,2.49s-4.8-.83-6.49-2.49c-1.69-1.66-2.53-3.81-2.53-6.44s.84-4.78,2.53-6.44c1.69-1.66,3.85-2.49,6.49-2.49s4.78.83,6.44,2.49Zm-15.04,19.76h17.36v46.74h-17.36v-46.74Z"/>
        <path class="cls-2" d="m384.96,323.73h17.36v63.75h-17.36v-63.75Z"/>
        <path class="cls-2" d="m412.46,323.73h17.36v63.75h-17.36v-63.75Z"/>
        <path class="cls-2" d="m481.11,329.1c3.49,1.23,6.19,2.99,8.08,5.28,1.89,2.29,2.84,4.98,2.84,8.08s-.92,5.73-2.75,8.08c-1.83,2.35-4.33,3.98-7.48,4.9,3.67.75,6.6,2.51,8.81,5.28,2.2,2.78,3.31,6.09,3.31,9.92,0,3.38-.97,6.34-2.92,8.89-1.95,2.55-4.71,4.51-8.29,5.89-3.58,1.37-7.75,2.06-12.5,2.06h-30.85v-60.23h29.56c4.64,0,8.71.62,12.2,1.85Zm-8.94,20.36c1.03-.95,1.55-2.22,1.55-3.82s-.52-2.76-1.55-3.65c-1.03-.89-2.44-1.33-4.21-1.33h-10.83v10.22h10.83c1.77,0,3.18-.47,4.21-1.42Zm1.25,23.16c1.34-1.03,2.02-2.43,2.02-4.21,0-1.66-.67-2.96-2.02-3.91-1.35-.95-3.17-1.39-5.46-1.33h-10.83v10.91h10.83c2.29.06,4.11-.43,5.46-1.46Z"/>
        <path class="cls-2" d="m519.3,343.54c2.66-1.57,5.77-2.39,9.32-2.45v10.83c-4.76-.29-8.55.82-11.38,3.31-2.84,2.49-4.25,5.86-4.25,10.1v22.17h-11.17v-45.97h11.17v8.85c1.55-2.98,3.65-5.25,6.32-6.83Z"/>
        <path class="cls-2" d="m545.2,323.65c1.2,1.26,1.8,2.86,1.8,4.81s-.6,3.47-1.8,4.73c-1.2,1.26-2.72,1.89-4.55,1.89s-3.35-.63-4.55-1.89c-1.2-1.26-1.8-2.84-1.8-4.73s.6-3.55,1.8-4.81c1.2-1.26,2.72-1.89,4.55-1.89s3.35.63,4.55,1.89Zm-10.05,17.87h11.17v45.97h-11.17v-45.97Z"/>
        <path class="cls-2" d="m603.2,323.73v63.75h-11.17v-7.39c-1.66,2.58-3.8,4.54-6.4,5.89-2.61,1.35-5.63,2.02-9.06,2.02-4.35,0-8.18-.99-11.47-2.96-3.29-1.98-5.86-4.75-7.69-8.33-1.83-3.58-2.75-7.69-2.75-12.33s.9-8.64,2.71-12.16c1.8-3.52,4.35-6.26,7.65-8.21,3.29-1.95,7.06-2.92,11.3-2.92,3.49,0,6.56.69,9.19,2.06,2.63,1.37,4.81,3.35,6.53,5.93v-25.35h11.17Zm-14.82,50.99c2.43-2.61,3.65-5.97,3.65-10.1s-1.22-7.49-3.65-10.1c-2.44-2.61-5.57-3.91-9.41-3.91s-6.96,1.3-9.37,3.91c-2.41,2.61-3.64,5.97-3.69,10.1.06,4.12,1.29,7.49,3.69,10.1,2.41,2.61,5.53,3.91,9.37,3.91s6.97-1.3,9.41-3.91Z"/>
        <path class="cls-2" d="m658.27,341.52v41.59c0,4.35-.99,8.15-2.96,11.38-1.98,3.24-4.78,5.73-8.42,7.48-3.64,1.75-7.86,2.62-12.67,2.62-6.99,0-13.46-2.03-19.42-6.1l4.47-8.08c4.35,3.21,9.14,4.81,14.35,4.81,4.12,0,7.4-1.06,9.84-3.18,2.43-2.12,3.65-5.01,3.65-8.68v-5.41c-1.55,2.35-3.55,4.14-6.01,5.37-2.46,1.23-5.33,1.85-8.59,1.85-4.01,0-7.56-.93-10.65-2.79-3.09-1.86-5.5-4.47-7.22-7.82-1.72-3.35-2.58-7.2-2.58-11.56s.86-8.09,2.58-11.38c1.72-3.29,4.12-5.86,7.22-7.69,3.09-1.83,6.64-2.75,10.65-2.75,3.21,0,6.06.63,8.55,1.89,2.49,1.26,4.51,3.04,6.06,5.33v-6.87h11.17Zm-14.56,31.23c2.26-2.43,3.39-5.6,3.39-9.49s-1.13-7.06-3.39-9.49c-2.26-2.43-5.2-3.65-8.81-3.65s-6.54,1.23-8.81,3.69c-2.26,2.46-3.42,5.61-3.48,9.45.06,3.9,1.22,7.06,3.48,9.49,2.26,2.44,5.2,3.65,8.81,3.65s6.54-1.22,8.81-3.65Z"/>
        <path class="cls-2" d="m705.83,347.45c3.69,4.18,5.54,10.05,5.54,17.61,0,1.49-.03,2.61-.09,3.35h-33.94c.74,3.27,2.28,5.83,4.6,7.69,2.32,1.86,5.17,2.79,8.55,2.79,2.35,0,4.6-.44,6.75-1.33,2.15-.89,4.02-2.16,5.63-3.82l6.01,6.27c-2.29,2.52-5.08,4.47-8.38,5.84-3.29,1.37-6.95,2.06-10.96,2.06-4.7,0-8.84-.97-12.42-2.92-3.58-1.95-6.34-4.68-8.29-8.21-1.95-3.52-2.92-7.57-2.92-12.16s.99-8.65,2.96-12.2c1.98-3.55,4.74-6.32,8.29-8.29,3.55-1.98,7.59-2.96,12.11-2.96,7.33,0,12.85,2.09,16.54,6.27Zm-4.68,13.49c-.12-3.38-1.23-6.07-3.35-8.08-2.12-2-4.93-3.01-8.42-3.01-3.27,0-6,.99-8.21,2.96-2.21,1.98-3.57,4.68-4.08,8.12h24.06Z"/>
      </g>
    </g>
  </g>
</svg>